{"title":"The Lone Ranger 2013.1080p.BluRay.5.1.x264 . NVEE","uid":13134324,"size":3470961143,"categoryP":"video","categoryS":"hd___movies","magnet":"?xt=urn:btih:8a82864f61b292f81d2bfc8126be3f688979bd00&amp;dn=The+Lone+Ranger+2013.1080p.BluRay.5.1.x264+.+NVEE&amp;tr=udp%3A%2F%2Ftracker.leechers-paradise.org%3A6969&amp;tr=udp%3A%2F%2Fzer0day.ch%3A1337&amp;tr=udp%3A%2F%2Fopen.demonii.com%3A1337&amp;tr=udp%3A%2F%2Ftracker.coppersurfer.tk%3A6969&amp;tr=udp%3A%2F%2Fexodus.desync.com%3A6969","seeders":0,"leechers":1,"uploader":".NVEE","files":22,"time":1451881094,"description":"Quick note : \r\n\r\nYou require a torrent release I have posted in the past, not seeding,... \r\nPlease do not hesitate to inform me in any means you find fit to do so. \r\nTorrent requests also &quot;Always Welcome.&quot; \r\n\r\n \r\nFULL_INFOs \r\n\r\n99.99% &gt;&gt;&gt; SYNCED GUARANTEED \r\n\r\n&quot;Totally scrutinized / analyzed to be a verified torrent.&quot; \r\n___________________________________________ \r\n\r\nSource : Blu-ray ~ 1080p \r\n\r\n \r\n\r\nSpoken Language : English \r\n\r\nAudio : 6 ~ Channels Only \r\n\r\n \r\nSubs Info : \r\n\r\nx21 ~ Multisubs .srt \r\n\r\nAll .srt UTF-8 .idx &amp; .ass subs can be turned On/Off \r\n_____________________________________ \r\n--------------------------------------------------------------------------------- \r\n \r\nGeneral Metadata \r\n\r\nComplete name : The Lone Ranger 2013.1080p.BluRay.5.1.x264 . NVEE.mp4 \r\nFormat : MPEG-4 \r\nFormat profile : Base Media \r\nCodec ID : isom \r\nFile size : 3.23 GiB \r\nDuration : 2h 29mn \r\nOverall bit rate : 3 093 Kbps \r\nEncoded date : UTC 2013-10-06 10:01:04 \r\nTagged date : UTC 2013-10-06 10:01:04 \r\n\r\n \r\nVideo \r\n\r\nID : 1 \r\nFormat : AVC \r\nFormat/Info : Advanced Video Codec \r\nFormat profile :    \r\nFormat settings, CABAC : Yes \r\nFormat settings, ReFrames : 4 frames \r\nCodec ID : avc1 \r\nCodec ID/Info : Advanced Video Coding \r\nDuration : 2h 29mn \r\nBit rate : 2 450 Kbps \r\nMaximum bit rate : 13.3 Mbps \r\nWidth : 1 920 pixels \r\nHeight : 800 pixels \r\nDisplay aspect ratio : 2.40:1 \r\nFrame rate mode : Constant \r\nFrame rate : 23.976 fps \r\nColor space : YUV \r\nChroma subsampling : 4:2:0 \r\nBit depth : 8 bits \r\nScan type : Progressive \r\nBits/(Pixel*Frame) : 0.067 \r\nStream size : 2.56 GiB (79%) \r\nTitle : 1080p.BluRay.x264 .264#trackID=1:   \r\nWriting library : x264 core 133 r2334 a3ac64b \r\nEncoded date : UTC 2013-10-06 10:01:04 \r\nTagged date : UTC 2013-10-06 10:18:04 \r\n\r\nEncoded from Physical Blu-ray / Region B \r\n\r\n \r\nAudio \r\n\r\nID : 2 \r\nFormat : AC-3 \r\nFormat/Info : Audio Coding 3 \r\nMode extension : CM (complete main) \r\nFormat settings, Endianness : Big \r\nCodec ID : ac-3 \r\nDuration : 2h 29mn \r\nBit rate mode : Constant \r\nBit rate : 640 Kbps \r\nChannel(s) : 6 channels \r\nChannel positions : Front: L C R, Side: L R, LFE \r\nSampling rate : 48.0 KHz \r\nBit depth : 16 bits \r\nCompression mode : Lossy \r\nStream size : 685 MiB (21%) \r\nTitle : 1080p.BluRay.x264 . NVEE - [0] English_audio.ac3#trackID=1:   \r\nLanguage : English \r\nEncoded date : UTC 2013-10-06 10:15:11 \r\nTagged date : UTC 2013-10-06 10:18:04 \r\n\r\nEncoded from Physical Blu-ray 6 Channel audio &quot;Only&quot;. \r\n\r\n \r\n\r\n \r\n\r\n \r\n\r\n\r\n\r\n\r\nEnj0y !","torrent":{"xt":"urn:btih:8a82864f61b292f81d2bfc8126be3f688979bd00","amp;dn":"The+Lone+Ranger+2013.1080p.BluRay.5.1.x264+.+NVEE","amp;tr":["udp%3A%2F%2Ftracker.leechers-paradise.org%3A6969","udp%3A%2F%2Fzer0day.ch%3A1337","udp%3A%2F%2Fopen.demonii.com%3A1337","udp%3A%2F%2Ftracker.coppersurfer.tk%3A6969","udp%3A%2F%2Fexodus.desync.com%3A6969"],"infoHash":"8a82864f61b292f81d2bfc8126be3f688979bd00","infoHashBuffer":{"type":"Buffer","data":[138,130,134,79,97,178,146,248,29,43,252,129,38,190,63,104,137,121,189,0]},"announce":[],"urlList":[]}}